<?xml version="1.0" standalone="no"?>
<!DOCTYPE svg PUBLIC "-//W3C//DTD SVG 20010904//EN"
 "http://www.w3.org/TR/2001/REC-SVG-20010904/DTD/svg10.dtd">
<svg version="1.0" xmlns="http://www.w3.org/2000/svg"
 width="250.000000pt" height="250.000000pt" viewBox="0 0 250.000000 250.000000"
 preserveAspectRatio="xMidYMid meet">

<g transform="translate(0.000000,250.000000) scale(0.100000,-0.100000)"
fill="#ffffff" stroke="none">
<path d="M1273 2328 c-6 -7 -90 -152 -188 -323 -98 -170 -244 -425 -325 -565
-81 -140 -153 -266 -160 -280 -11 -22 -11 -23 3 -10 8 8 122 143 252 300 131
157 279 334 328 393 50 59 95 106 101 104 10 -3 58 -105 220 -468 38 -85 87
-191 108 -237 38 -82 44 -102 32 -102 -3 0 -97 -16 -208 -35 -110 -19 -322
-55 -470 -80 -149 -25 -272 -48 -275 -50 -2 -3 307 -5 687 -5 381 0 692 2 692
5 0 5 -42 78 -363 635 -93 162 -222 385 -285 495 -140 245 -136 239 -149 223z"/>
<path d="M1150 1522 c-19 -9 -45 -32 -57 -51 -21 -31 -23 -46 -23 -157 l0
-124 29 0 c26 0 30 4 33 33 l3 32 70 0 70 0 3 -32 c3 -30 6 -33 39 -33 l35 0
-3 123 c-5 144 -21 184 -89 211 -51 20 -67 20 -110 -2z m110 -74 c17 -18 20
-33 18 -73 l-3 -50 -70 0 -70 0 -3 46 c-2 34 2 52 18 72 28 35 80 37 110 5z"/>
<path d="M1719 693 c-33 -20 -59 -63 -59 -97 0 -19 -5 -26 -20 -26 -16 0 -20
-7 -20 -34 0 -25 5 -35 20 -39 18 -5 20 -14 20 -117 l0 -111 33 3 32 3 3 113
3 112 45 0 c45 0 45 0 42 33 -3 30 -6 32 -45 35 -37 3 -43 6 -43 26 0 30 18
45 61 50 19 2 37 4 42 5 4 0 7 15 7 31 0 29 -1 30 -47 30 -27 0 -60 -8 -74
-17z"/>
<path d="M1505 684 c-21 -21 -16 -53 10 -70 18 -12 24 -11 43 2 27 19 29 60 3
74 -27 14 -37 13 -56 -6z"/>
<path d="M515 650 c-22 -11 -50 -35 -62 -53 -21 -31 -23 -44 -23 -181 l0 -147
33 3 c29 3 32 6 37 43 l5 40 69 3 c38 2 73 -1 79 -7 5 -5 12 -24 16 -43 6 -28
11 -33 36 -33 l30 0 3 130 c2 118 0 134 -20 175 -17 33 -35 51 -68 68 -55 27
-83 28 -135 2z m122 -82 c23 -25 38 -88 28 -118 -6 -18 -16 -20 -86 -20 l-79
0 0 54 c0 71 26 106 79 106 26 0 44 -7 58 -22z"/>
<path d="M920 571 c-14 -5 -36 -14 -48 -22 -17 -11 -24 -11 -34 -1 -6 6 -16
12 -20 12 -4 0 -8 -90 -8 -200 l0 -200 30 0 c29 0 29 1 32 63 3 56 5 62 23 59
11 -2 35 -6 53 -9 43 -7 85 12 122 54 26 29 30 42 30 89 0 30 -7 68 -15 84
-29 56 -107 89 -165 71z m93 -88 c25 -23 23 -91 -5 -120 -49 -52 -128 -14
-128 62 0 75 76 108 133 58z"/>
<path d="M1263 569 c-18 -5 -35 -14 -38 -19 -10 -16 -37 -12 -51 8 -11 14 -13
-16 -14 -190 l0 -208 30 0 c29 0 29 1 32 63 3 56 5 62 23 59 81 -15 101 -13
135 10 66 44 89 137 51 208 -30 58 -104 88 -168 69z m100 -91 c41 -49 5 -138
-57 -138 -55 0 -83 39 -76 105 6 61 91 82 133 33z"/>
<path d="M1935 566 c-56 -25 -95 -85 -95 -144 0 -15 9 -46 19 -69 50 -108 208
-108 260 0 26 54 27 89 0 143 -15 31 -32 48 -63 63 -49 24 -79 26 -121 7z
m107 -86 c26 -27 30 -36 25 -68 -12 -71 -85 -96 -132 -46 -50 54 -15 141 58
143 10 1 32 -13 49 -29z"/>
<path d="M1504 557 c-2 -7 -3 -74 -2 -148 l3 -134 30 0 30 0 3 148 3 147 -31
0 c-17 0 -33 -6 -36 -13z"/>
</g>
</svg>
