<?xml version="1.0" standalone="no"?>
<!DOCTYPE svg PUBLIC "-//W3C//DTD SVG 20010904//EN"
 "http://www.w3.org/TR/2001/REC-SVG-20010904/DTD/svg10.dtd">
<svg version="1.0" xmlns="http://www.w3.org/2000/svg"
 width="32.000000pt" height="32.000000pt" viewBox="0 0 32.000000 32.000000"
 preserveAspectRatio="xMidYMid meet">

<g transform="translate(0.000000,32.000000) scale(0.100000,-0.100000)"
fill="#ffffff" stroke="none">
<path d="M108 205 c-25 -58 -44 -105 -42 -105 2 0 22 30 45 66 23 36 45 62 50
57 5 -5 20 -42 34 -83 28 -82 27 -84 -39 -94 -86 -13 -73 -26 27 -26 64 0 97
4 97 11 0 12 -109 259 -119 271 -3 4 -27 -40 -53 -97z"/>
<path d="M126 125 c-3 -9 -6 -26 -6 -38 0 -16 3 -18 12 -9 9 9 15 9 26 0 11
-10 13 -6 10 23 -3 37 -31 52 -42 24z m34 -10 c0 -8 -7 -15 -15 -15 -16 0 -20
12 -8 23 11 12 23 8 23 -8z"/>
</g>
</svg>
